<svg xmlns="http://www.w3.org/2000/svg" xmlns:xlink="http://www.w3.org/1999/xlink" contentStyleType="text/css" data-diagram-type="DESCRIPTION" height="1190px" preserveAspectRatio="none" style="width:455px;height:1190px;background:#FFFFFF;" version="1.1" viewBox="0 0 455 1190" width="455px" zoomAndPan="magnify"><defs/><g><!--cluster Sistema Intranet Educativa--><g class="cluster" data-entity="Sistema Intranet Educativa" data-source-line="19" data-uid="ent0005" id="cluster_Sistema Intranet Educativa"><rect fill="none" height="1177" rx="2.5" ry="2.5" style="stroke:#181818;stroke-width:1;" width="308.84" x="140.52" y="7"/><text fill="#000000" font-family="sans-serif" font-size="14" font-weight="bold" lengthAdjust="spacing" textLength="214.9219" x="187.4791" y="21.9951">Sistema Intranet Educativa</text></g><!--cluster Gesti?n Acad?mica--><g class="cluster" data-entity="Gesti.n Acad.mica" data-source-line="21" data-uid="ent0006" id="cluster_Gesti.n Acad.mica"><rect fill="none" height="533" rx="2.5" ry="2.5" style="stroke:#181818;stroke-width:1;" width="219.74" x="185.07" y="50"/><text fill="#000000" font-family="sans-serif" font-size="14" font-weight="bold" lengthAdjust="spacing" textLength="150.5" x="219.69" y="64.9951">Gesti&#243;n Acad&#233;mica</text></g><!--cluster Comunicaciones--><g class="cluster" data-entity="Comunicaciones" data-source-line="31" data-uid="ent0014" id="cluster_Comunicaciones"><rect fill="none" height="269" rx="2.5" ry="2.5" style="stroke:#181818;stroke-width:1;" width="260.84" x="164.52" y="607"/><text fill="#000000" font-family="sans-serif" font-size="14" font-weight="bold" lengthAdjust="spacing" textLength="127.4697" x="231.2051" y="621.9951">Comunicaciones</text></g><!--cluster Administraci?n General--><g class="cluster" data-entity="Administraci.n General" data-source-line="37" data-uid="ent0018" id="cluster_Administraci.n General"><rect fill="none" height="260" rx="2.5" ry="2.5" style="stroke:#181818;stroke-width:1;" width="249.46" x="170.21" y="900"/><text fill="#000000" font-family="sans-serif" font-size="14" font-weight="bold" lengthAdjust="spacing" textLength="185.541" x="202.1695" y="914.9951">Administraci&#243;n General</text></g><!--entity UC1--><g class="entity" data-entity="UC1" data-source-line="22" data-uid="ent0007" id="entity_UC1"><ellipse cx="294.9399" cy="103.002" fill="#EEF5FF" rx="77.4599" ry="17.892" style="stroke:#0366D6;stroke-width:0.5;"/><text fill="#000000" font-family="sans-serif" font-size="12" lengthAdjust="spacing" textLength="131.5254" x="229.1772" y="106.4863">Ver materias inscritas</text></g><!--entity UC2--><g class="entity" data-entity="UC2" data-source-line="23" data-uid="ent0008" id="entity_UC2"><ellipse cx="294.9398" cy="175.004" fill="#EEF5FF" rx="81.7198" ry="18.744" style="stroke:#0366D6;stroke-width:0.5;"/><text fill="#000000" font-family="sans-serif" font-size="12" lengthAdjust="spacing" textLength="141.0996" x="224.39" y="178.4883">Ver notas por semestre</text></g><!--entity UC3--><g class="entity" data-entity="UC3" data-source-line="24" data-uid="ent0009" id="entity_UC3"><ellipse cx="294.9421" cy="246.9984" fill="#EEF5FF" rx="81.2921" ry="18.6584" style="stroke:#0366D6;stroke-width:0.5;"/><text fill="#000000" font-family="sans-serif" font-size="12" lengthAdjust="spacing" textLength="140.1445" x="224.8699" y="250.4828">Ver asistencia personal</text></g><!--entity UC4--><g class="entity" data-entity="UC4" data-source-line="25" data-uid="ent0010" id="entity_UC4"><ellipse cx="294.9444" cy="321.0049" fill="#EEF5FF" rx="90.7744" ry="20.5549" style="stroke:#0366D6;stroke-width:0.5;"/><text fill="#000000" font-family="sans-serif" font-size="12" lengthAdjust="spacing" textLength="161.0566" x="214.4161" y="324.4893">Crear y gestionar materias</text></g><!--entity UC5--><g class="entity" data-entity="UC5" data-source-line="26" data-uid="ent0011" id="entity_UC5"><ellipse cx="294.9429" cy="397.0046" fill="#EEF5FF" rx="88.7229" ry="20.1446" style="stroke:#0366D6;stroke-width:0.5;"/><text fill="#000000" font-family="sans-serif" font-size="12" lengthAdjust="spacing" textLength="156.5742" x="216.6558" y="400.4889">Registrar asistencia diaria</text></g><!--entity UC6--><g class="entity" data-entity="UC6" data-source-line="27" data-uid="ent0012" id="entity_UC6"><ellipse cx="294.9439" cy="471.0028" fill="#EEF5FF" rx="82.1139" ry="18.8228" style="stroke:#0366D6;stroke-width:0.5;"/><text fill="#000000" font-family="sans-serif" font-size="12" lengthAdjust="spacing" textLength="141.9785" x="223.9547" y="474.4872">Registrar y editar notas</text></g><!--entity UC7--><g class="entity" data-entity="UC7" data-source-line="28" data-uid="ent0013" id="entity_UC7"><ellipse cx="294.9399" cy="546.004" fill="#EEF5FF" rx="93.8699" ry="21.174" style="stroke:#0366D6;stroke-width:0.5;"/><text fill="#000000" font-family="sans-serif" font-size="12" lengthAdjust="spacing" textLength="167.7832" x="211.0483" y="549.4884">Asignar usuarios a materias</text></g><!--entity UC8--><g class="entity" data-entity="UC8" data-source-line="32" data-uid="ent0015" id="entity_UC8"><ellipse cx="294.9436" cy="658.0007" fill="#EEF5FF" rx="65.5036" ry="15.5007" style="stroke:#0366D6;stroke-width:0.5;"/><text fill="#000000" font-family="sans-serif" font-size="12" lengthAdjust="spacing" textLength="103.6758" x="243.1057" y="661.4851">Ver comunicados</text></g><!--entity UC9--><g class="entity" data-entity="UC9" data-source-line="33" data-uid="ent0016" id="entity_UC9"><ellipse cx="294.9419" cy="733.0044" fill="#EEF5FF" rx="111.8719" ry="24.7744" style="stroke:#0366D6;stroke-width:0.5;"/><text fill="#000000" font-family="sans-serif" font-size="12" lengthAdjust="spacing" textLength="206.2383" x="191.8228" y="736.4888">Enviar comunicados a estudiantes</text></g><!--entity UC10--><g class="entity" data-entity="UC10" data-source-line="34" data-uid="ent0017" id="entity_UC10"><ellipse cx="294.9426" cy="835.0045" fill="#EEF5FF" rx="114.4226" ry="25.2845" style="stroke:#0366D6;stroke-width:0.5;"/><text fill="#000000" font-family="sans-serif" font-size="12" lengthAdjust="spacing" textLength="211.6172" x="189.134" y="838.4889">Enviar comunicados institucionales</text></g><!--entity UC11--><g class="entity" data-entity="UC11" data-source-line="38" data-uid="ent0019" id="entity_UC11"><ellipse cx="294.9354" cy="953.9991" fill="#EEF5FF" rx="82.6954" ry="18.9391" style="stroke:#0366D6;stroke-width:0.5;"/><text fill="#000000" font-family="sans-serif" font-size="12" lengthAdjust="spacing" textLength="143.2734" x="223.2987" y="957.4835">Crear usuario individual</text></g><!--entity UC12--><g class="entity" data-entity="UC12" data-source-line="39" data-uid="ent0020" id="entity_UC12"><ellipse cx="294.9351" cy="1043.003" fill="#EEF5FF" rx="78.7151" ry="18.143" style="stroke:#0366D6;stroke-width:0.5;"/><text fill="#000000" font-family="sans-serif" font-size="12" lengthAdjust="spacing" textLength="134.3613" x="227.7545" y="1046.4874">Crear usuarios masivo</text></g><!--entity UC13--><g class="entity" data-entity="UC13" data-source-line="40" data-uid="ent0021" id="entity_UC13"><ellipse cx="294.9378" cy="1119.9956" fill="#EEF5FF" rx="108.7278" ry="24.1456" style="stroke:#0366D6;stroke-width:0.5;"/><text fill="#000000" font-family="sans-serif" font-size="12" lengthAdjust="spacing" textLength="199.5879" x="195.1439" y="1123.4799">Gestionar semestres acad&#233;micos</text></g><!--entity Alumno--><g class="entity" data-entity="Alumno" data-source-line="15" data-uid="ent0002" id="entity_Alumno"><ellipse cx="49.7626" cy="182.52" fill="#FFFFFF" rx="8" ry="8" style="stroke:#0366D6;stroke-width:0.5;"/><path d="M49.7626,190.52 L49.7626,217.52 M36.7626,198.52 L62.7626,198.52 M49.7626,217.52 L36.7626,232.52 M49.7626,217.52 L62.7626,232.52" fill="none" style="stroke:#0366D6;stroke-width:0.5;"/><text fill="#000000" font-family="sans-serif" font-size="12" lengthAdjust="spacing" textLength="45.7852" x="26.87" y="245.1587">Alumno</text></g><!--entity Profesor--><g class="entity" data-entity="Profesor" data-source-line="16" data-uid="ent0003" id="entity_Profesor"><ellipse cx="49.7532" cy="405.52" fill="#FFFFFF" rx="8" ry="8" style="stroke:#0366D6;stroke-width:0.5;"/><path d="M49.7532,413.52 L49.7532,440.52 M36.7532,421.52 L62.7532,421.52 M49.7532,440.52 L36.7532,455.52 M49.7532,440.52 L62.7532,455.52" fill="none" style="stroke:#0366D6;stroke-width:0.5;"/><text fill="#000000" font-family="sans-serif" font-size="12" lengthAdjust="spacing" textLength="49.6465" x="24.93" y="468.1587">Profesor</text></g><!--entity Administrativo--><g class="entity" data-entity="Administrativo" data-source-line="17" data-uid="ent0004" id="entity_Administrativo"><ellipse cx="49.7578" cy="885.52" fill="#FFFFFF" rx="8" ry="8" style="stroke:#0366D6;stroke-width:0.5;"/><path d="M49.7578,893.52 L49.7578,920.52 M36.7578,901.52 L62.7578,901.52 M49.7578,920.52 L36.7578,935.52 M49.7578,920.52 L62.7578,935.52" fill="none" style="stroke:#0366D6;stroke-width:0.5;"/><text fill="#000000" font-family="sans-serif" font-size="12" lengthAdjust="spacing" textLength="87.5156" x="6" y="948.1587">Administrativo</text></g><!--link UC12 to UC11--><g class="link" data-entity-1="UC12" data-entity-2="UC11" data-source-line="44" data-uid="lnk22" id="link_UC12_UC11"><path d="M294.94,1024.56 C294.94,1009.59 294.94,994.55 294.94,979.34" fill="none" id="UC12-to-UC11" style="stroke:#181818;stroke-width:1;stroke-dasharray:7.0,7.0;"/><polygon fill="#181818" points="294.94,973.34,290.94,982.34,294.94,978.34,298.94,982.34,294.94,973.34" style="stroke:#181818;stroke-width:1;"/><text fill="#000000" font-family="sans-serif" font-size="13" lengthAdjust="spacing" textLength="61.1851" x="252.94" y="1003.4669">&#171;extend&#187;</text></g><!--link UC10 to UC9--><g class="link" data-entity-1="UC10" data-entity-2="UC9" data-source-line="45" data-uid="lnk23" id="link_UC10_UC9"><path d="M294.94,809.26 C294.94,793.56 294.94,779.59 294.94,764.03" fill="none" id="UC10-to-UC9" style="stroke:#181818;stroke-width:1;stroke-dasharray:7.0,7.0;"/><polygon fill="#181818" points="294.94,758.03,290.94,767.03,294.94,763.03,298.94,767.03,294.94,758.03" style="stroke:#181818;stroke-width:1;"/><text fill="#000000" font-family="sans-serif" font-size="13" lengthAdjust="spacing" textLength="61.1851" x="252.94" y="788.3069">&#171;extend&#187;</text></g><!--link Alumno to UC1--><g class="link" data-entity-1="Alumno" data-entity-2="UC1" data-source-line="49" data-uid="lnk24" id="link_Alumno_UC1"><path d="M73.04,185.71 C88.27,169.97 109.76,150.58 132.52,139 C160.92,124.55 189.1312,116.9021 218.6712,111.6921" fill="none" id="Alumno-to-UC1" style="stroke:#181818;stroke-width:1;"/><polygon fill="#181818" points="224.58,110.65,215.022,108.274,219.656,111.5185,216.4116,116.1524,224.58,110.65" style="stroke:#181818;stroke-width:1;"/></g><!--link Alumno to UC2--><g class="link" data-entity-1="Alumno" data-entity-2="UC2" data-source-line="50" data-uid="lnk25" id="link_Alumno_UC2"><path d="M72.77,207.74 C106.85,202.7 167.8746,193.6583 219.2346,186.0583" fill="none" id="Alumno-to-UC2" style="stroke:#181818;stroke-width:1;"/><polygon fill="#181818" points="225.17,185.18,215.6814,182.5405,220.2239,185.9119,216.8525,190.4543,225.17,185.18" style="stroke:#181818;stroke-width:1;"/></g><!--link Alumno to UC3--><g class="link" data-entity-1="Alumno" data-entity-2="UC3" data-source-line="51" data-uid="lnk26" id="link_Alumno_UC3"><path d="M72.77,214.26 C106.97,219.32 168.3346,228.4118 219.7646,236.0218" fill="none" id="Alumno-to-UC3" style="stroke:#181818;stroke-width:1;"/><polygon fill="#181818" points="225.7,236.9,217.3824,231.6257,220.7539,236.1681,216.2114,239.5395,225.7,236.9" style="stroke:#181818;stroke-width:1;"/></g><!--link Alumno to UC8--><g class="link" data-entity-1="Alumno" data-entity-2="UC8" data-source-line="52" data-uid="lnk27" id="link_Alumno_UC8"><path d="M60.89,248.44 C69.98,282.59 83.4,334.5 93.52,380 C113.46,469.68 75.98,510.58 132.52,583 C159.99,618.2 202.1006,635.9481 238.6006,646.1281" fill="none" id="Alumno-to-UC8" style="stroke:#181818;stroke-width:1;"/><polygon fill="#181818" points="244.38,647.74,236.7855,641.4692,239.5638,646.3967,234.6363,649.1751,244.38,647.74" style="stroke:#181818;stroke-width:1;"/></g><!--link Profesor to UC4--><g class="link" data-entity-1="Profesor" data-entity-2="UC4" data-source-line="54" data-uid="lnk28" id="link_Profesor_UC4"><path d="M74.94,405.52 C89.97,389.58 110.55,370.62 132.52,359 C157.96,345.53 182.2845,338.0059 209.6345,332.3459" fill="none" id="Profesor-to-UC4" style="stroke:#181818;stroke-width:1;"/><polygon fill="#181818" points="215.51,331.13,205.8861,329.0369,210.6137,332.1433,207.5074,336.8709,215.51,331.13" style="stroke:#181818;stroke-width:1;"/></g><!--link Profesor to UC5--><g class="link" data-entity-1="Profesor" data-entity-2="UC5" data-source-line="55" data-uid="lnk29" id="link_Profesor_UC5"><path d="M74.96,430.32 C108.54,425.21 164.7883,416.6528 214.3283,409.1128" fill="none" id="Profesor-to-UC5" style="stroke:#181818;stroke-width:1;"/><polygon fill="#181818" points="220.26,408.21,210.7606,405.6097,215.3169,408.9623,211.9643,413.5187,220.26,408.21" style="stroke:#181818;stroke-width:1;"/></g><!--link Profesor to UC6--><g class="link" data-entity-1="Profesor" data-entity-2="UC6" data-source-line="56" data-uid="lnk30" id="link_Profesor_UC6"><path d="M74.96,437.68 C109.74,442.97 169.2683,452.027 219.5883,459.687" fill="none" id="Profesor-to-UC6" style="stroke:#181818;stroke-width:1;"/><polygon fill="#181818" points="225.52,460.59,217.2245,455.2811,220.5769,459.8375,216.0205,463.19,225.52,460.59" style="stroke:#181818;stroke-width:1;"/></g><!--link Profesor to UC9--><g class="link" data-entity-1="Profesor" data-entity-2="UC9" data-source-line="57" data-uid="lnk31" id="link_Profesor_UC9"><path d="M51.8,471.31 C55.44,527.21 70.67,632.38 132.52,691 C148.91,706.54 164.539,714.8334 186.359,721.1834" fill="none" id="Profesor-to-UC9" style="stroke:#181818;stroke-width:1;"/><polygon fill="#181818" points="192.12,722.86,184.5962,716.5045,187.3192,721.4629,182.3608,724.1858,192.12,722.86" style="stroke:#181818;stroke-width:1;"/></g><!--link Administrativo to UC7--><g class="link" data-entity-1="Administrativo" data-entity-2="UC7" data-source-line="59" data-uid="lnk32" id="link_Administrativo_UC7"><path d="M51.95,876.89 C55.72,817.41 71.04,699.94 132.52,626 C158.51,594.73 194.0799,576.6091 228.3599,564.3591" fill="none" id="Administrativo-to-UC7" style="stroke:#181818;stroke-width:1;"/><polygon fill="#181818" points="234.01,562.34,224.1888,561.6019,229.3016,564.0226,226.8809,569.1353,234.01,562.34" style="stroke:#181818;stroke-width:1;"/></g><!--link Administrativo to UC10--><g class="link" data-entity-1="Administrativo" data-entity-2="UC10" data-source-line="60" data-uid="lnk33" id="link_Administrativo_UC10"><path d="M93.95,899.97 C131.49,887.77 180.6835,871.7937 223.4735,857.8937" fill="none" id="Administrativo-to-UC10" style="stroke:#181818;stroke-width:1;"/><polygon fill="#181818" points="229.18,856.04,219.3845,855.0162,224.4246,857.5848,221.8561,862.6249,229.18,856.04" style="stroke:#181818;stroke-width:1;"/></g><!--link Administrativo to UC11--><g class="link" data-entity-1="Administrativo" data-entity-2="UC11" data-source-line="61" data-uid="lnk34" id="link_Administrativo_UC11"><path d="M93.95,921.11 C130.8,927.17 178.4795,935.0063 220.9195,941.9863" fill="none" id="Administrativo-to-UC11" style="stroke:#181818;stroke-width:1;"/><polygon fill="#181818" points="226.84,942.96,218.6085,937.5524,221.9063,942.1486,217.3102,945.4464,226.84,942.96" style="stroke:#181818;stroke-width:1;"/></g><!--link Administrativo to UC13--><g class="link" data-entity-1="Administrativo" data-entity-2="UC13" data-source-line="62" data-uid="lnk35" id="link_Administrativo_UC13"><path d="M59.44,951.23 C70.2,989.02 92.24,1046.44 132.52,1079 C150.84,1093.81 168.0639,1101.799 190.9339,1107.919" fill="none" id="Administrativo-to-UC13" style="stroke:#181818;stroke-width:1;"/><polygon fill="#181818" points="196.73,1109.47,189.0699,1103.2794,191.8999,1108.1775,187.0019,1111.0075,196.73,1109.47" style="stroke:#181818;stroke-width:1;"/></g><!--SRC=[ZLHBRjim4Dth50DruNQHmh8J9ou20wvh6zqLCTezGOvLDX9fa9GHD-Ys1-WjiiuHV9EUf2DHjaLPQIjempVpvlDco1xCj5hBj32Co_sp0hHk_-GaPr66QmTEWv7fLmT26kHEQXNPUwaspB0SDepVinHNRfSXb6QcqWmR3eL5pYp2OmJmdfnJemibPZhJ1bxDvukhnQAqQ2FGr6X_E1fz616wqCgjv7U4P13zQCHat95VPyH5zVrdnCW7ccP5hdHz-6Jq6gqs1vl8fPBM6URaLaVHiKM8LmHZpk2Z8gj21tDHyDADnLLjz3UybwHgfUwKCx5_oabUxmP7YU8lQ21d3era5gIot4Z7R0odZ_3Fi-ISfJGvmeOAjfXJ9eDdhC4vYzco1SKbWmqQgnNBuXPh6B9c1fc17QHbD-H_gZTkiYv3rXscbOH1HY4PyU86w-ebrWvGa19rct5OuIXaJQrCoxeAMr1yRO6rIwnOryIY1GX6DDDveMWkd3f3spaTNhi87OobMSzDo9ghBJNQ9595f5v1_IjNfgbOut-oQ1-ST4LP7CkElAJVqSXfQVs5Ng92KyxsiMkQjLAKGCYj54Lp2NoEv2yqI_9QkXhncH19Q-EMnvqvx2X9SRWCNa_F6nvQwi4TPlKu01zeSGIync-ORp8Dc-gYLcgy8Tyo7xoTLEN2ExYzzVwJYRVrlMqCeOtIzChd3nzy4d_fV__y1LGpzIQGwjUHVo7WugAA7nu7uN4O7c-YwF2YrCXb6xXg0wCsC8wYy1sgyUjkc7QY6qzUm8T_0000]--></g></svg>