<svg xmlns="http://www.w3.org/2000/svg" xmlns:xlink="http://www.w3.org/1999/xlink" contentStyleType="text/css" data-diagram-type="DESCRIPTION" height="665px" preserveAspectRatio="none" style="width:455px;height:665px;background:#FFFFFF;" version="1.1" viewBox="0 0 455 665" width="455px" zoomAndPan="magnify"><defs/><g><!--cluster Sistema Intranet Educativa--><g class="cluster" data-entity="Sistema Intranet Educativa" data-source-line="16" data-uid="ent0003" id="cluster_Sistema Intranet Educativa"><rect fill="none" height="652" rx="2.5" ry="2.5" style="stroke:#181818;stroke-width:1;" width="308.84" x="140.52" y="7"/><text fill="#000000" font-family="sans-serif" font-size="14" font-weight="bold" lengthAdjust="spacing" textLength="214.9219" x="187.4791" y="21.9951">Sistema Intranet Educativa</text></g><!--cluster Gesti?n Acad?mica--><g class="cluster" data-entity="Gesti.n Acad.mica" data-source-line="17" data-uid="ent0004" id="cluster_Gesti.n Acad.mica"><rect fill="none" height="93" rx="2.5" ry="2.5" style="stroke:#181818;stroke-width:1;" width="219.74" x="185.07" y="542"/><text fill="#000000" font-family="sans-serif" font-size="14" font-weight="bold" lengthAdjust="spacing" textLength="150.5" x="219.69" y="556.9951">Gesti&#243;n Acad&#233;mica</text></g><!--cluster Comunicaciones--><g class="cluster" data-entity="Comunicaciones" data-source-line="20" data-uid="ent0006" id="cluster_Comunicaciones"><rect fill="none" height="184" rx="2.5" ry="2.5" style="stroke:#181818;stroke-width:1;" width="260.84" x="164.52" y="334"/><text fill="#000000" font-family="sans-serif" font-size="14" font-weight="bold" lengthAdjust="spacing" textLength="127.4697" x="231.2051" y="348.9951">Comunicaciones</text></g><!--cluster Administraci?n General--><g class="cluster" data-entity="Administraci.n General" data-source-line="24" data-uid="ent0009" id="cluster_Administraci.n General"><rect fill="none" height="260" rx="2.5" ry="2.5" style="stroke:#181818;stroke-width:1;" width="249.46" x="170.21" y="50"/><text fill="#000000" font-family="sans-serif" font-size="14" font-weight="bold" lengthAdjust="spacing" textLength="185.541" x="202.1695" y="64.9951">Administraci&#243;n General</text></g><!--entity UC7--><g class="entity" data-entity="UC7" data-source-line="18" data-uid="ent0005" id="entity_UC7"><ellipse cx="294.9399" cy="598.004" fill="#EEF5FF" rx="93.8699" ry="21.174" style="stroke:#0366D6;stroke-width:0.5;"/><text fill="#000000" font-family="sans-serif" font-size="12" lengthAdjust="spacing" textLength="167.7832" x="211.0483" y="601.4884">Asignar usuarios a materias</text></g><!--entity UC8--><g class="entity" data-entity="UC8" data-source-line="21" data-uid="ent0007" id="entity_UC8"><ellipse cx="294.9436" cy="486.0007" fill="#EEF5FF" rx="65.5036" ry="15.5007" style="stroke:#0366D6;stroke-width:0.5;"/><text fill="#000000" font-family="sans-serif" font-size="12" lengthAdjust="spacing" textLength="103.6758" x="243.1057" y="489.4851">Ver comunicados</text></g><!--entity UC10--><g class="entity" data-entity="UC10" data-source-line="22" data-uid="ent0008" id="entity_UC10"><ellipse cx="294.9426" cy="394.0045" fill="#EEF5FF" rx="114.4226" ry="25.2845" style="stroke:#0366D6;stroke-width:0.5;"/><text fill="#000000" font-family="sans-serif" font-size="12" lengthAdjust="spacing" textLength="211.6172" x="189.134" y="397.4889">Enviar comunicados institucionales</text></g><!--entity UC11--><g class="entity" data-entity="UC11" data-source-line="25" data-uid="ent0010" id="entity_UC11"><ellipse cx="294.9354" cy="191.9991" fill="#EEF5FF" rx="82.6954" ry="18.9391" style="stroke:#0366D6;stroke-width:0.5;"/><text fill="#000000" font-family="sans-serif" font-size="12" lengthAdjust="spacing" textLength="143.2734" x="223.2987" y="195.4835">Crear usuario individual</text></g><!--entity UC12--><g class="entity" data-entity="UC12" data-source-line="26" data-uid="ent0011" id="entity_UC12"><ellipse cx="294.9351" cy="103.003" fill="#EEF5FF" rx="78.7151" ry="18.143" style="stroke:#0366D6;stroke-width:0.5;"/><text fill="#000000" font-family="sans-serif" font-size="12" lengthAdjust="spacing" textLength="134.3613" x="227.7545" y="106.4874">Crear usuarios masivo</text></g><!--entity UC13--><g class="entity" data-entity="UC13" data-source-line="27" data-uid="ent0012" id="entity_UC13"><ellipse cx="294.9378" cy="269.9956" fill="#EEF5FF" rx="108.7278" ry="24.1456" style="stroke:#0366D6;stroke-width:0.5;"/><text fill="#000000" font-family="sans-serif" font-size="12" lengthAdjust="spacing" textLength="199.5879" x="195.1439" y="273.4799">Gestionar semestres acad&#233;micos</text></g><!--entity Administrativo--><g class="entity" data-entity="Administrativo" data-source-line="14" data-uid="ent0002" id="entity_Administrativo"><ellipse cx="49.7578" cy="325.52" fill="#FFFFFF" rx="8" ry="8" style="stroke:#0366D6;stroke-width:0.5;"/><path d="M49.7578,333.52 L49.7578,360.52 M36.7578,341.52 L62.7578,341.52 M49.7578,360.52 L36.7578,375.52 M49.7578,360.52 L62.7578,375.52" fill="none" style="stroke:#0366D6;stroke-width:0.5;"/><text fill="#000000" font-family="sans-serif" font-size="12" lengthAdjust="spacing" textLength="87.5156" x="6" y="388.1587">Administrativo</text></g><!--link UC12 to UC11--><g class="link" data-entity-1="UC12" data-entity-2="UC11" data-source-line="32" data-uid="lnk13" id="link_UC12_UC11"><path d="M294.94,121.36 C294.94,136.35 294.94,151.45 294.94,166.69" fill="none" id="UC12-to-UC11" style="stroke:#181818;stroke-width:1;stroke-dasharray:7.0,7.0;"/><polygon fill="#181818" points="294.94,172.69,298.94,163.69,294.94,167.69,290.94,163.69,294.94,172.69" style="stroke:#181818;stroke-width:1;"/><text fill="#000000" font-family="sans-serif" font-size="13" lengthAdjust="spacing" textLength="61.1851" x="252.94" y="151.6669">&#171;extend&#187;</text></g><!--link UC10 to UC8--><g class="link" data-entity-1="UC10" data-entity-2="UC8" data-source-line="33" data-uid="lnk14" id="link_UC10_UC8"><path d="M294.94,419.43 C294.94,435.76 294.94,450.45 294.94,464.39" fill="none" id="UC10-to-UC8" style="stroke:#181818;stroke-width:1;stroke-dasharray:7.0,7.0;"/><polygon fill="#181818" points="294.94,470.39,298.94,461.39,294.94,465.39,290.94,461.39,294.94,470.39" style="stroke:#181818;stroke-width:1;"/><text fill="#000000" font-family="sans-serif" font-size="13" lengthAdjust="spacing" textLength="61.1851" x="252.94" y="449.4569">&#171;extend&#187;</text></g><!--link Administrativo to UC7--><g class="link" data-entity-1="Administrativo" data-entity-2="UC7" data-source-line="35" data-uid="lnk15" id="link_Administrativo_UC7"><path d="M61.65,391.41 C73.84,427.66 96.71,482.27 132.52,518 C161.97,547.38 198.7686,565.7057 232.7386,578.5657" fill="none" id="Administrativo-to-UC7" style="stroke:#181818;stroke-width:1;"/><polygon fill="#181818" points="238.35,580.69,231.3491,573.7627,233.6739,578.9198,228.5168,581.2445,238.35,580.69" style="stroke:#181818;stroke-width:1;"/></g><!--link Administrativo to UC8--><g class="link" data-entity-1="Administrativo" data-entity-2="UC8" data-source-line="36" data-uid="lnk16" id="link_Administrativo_UC8"><path d="M80.1,391.27 C94.41,407.31 112.78,425.07 132.52,437 C165.85,457.15 202.2623,468.2911 235.1823,475.5911" fill="none" id="Administrativo-to-UC8" style="stroke:#181818;stroke-width:1;"/><polygon fill="#181818" points="241.04,476.89,233.1194,471.0364,236.1586,475.8075,231.3875,478.8467,241.04,476.89" style="stroke:#181818;stroke-width:1;"/></g><!--link Administrativo to UC10--><g class="link" data-entity-1="Administrativo" data-entity-2="UC10" data-source-line="37" data-uid="lnk17" id="link_Administrativo_UC10"><path d="M93.95,361.11 C123.91,366.03 159.0195,371.8065 196.1195,377.9065" fill="none" id="Administrativo-to-UC10" style="stroke:#181818;stroke-width:1;"/><polygon fill="#181818" points="202.04,378.88,193.8082,373.4728,197.1062,378.0688,192.5103,381.3668,202.04,378.88" style="stroke:#181818;stroke-width:1;"/></g><!--link Administrativo to UC11--><g class="link" data-entity-1="Administrativo" data-entity-2="UC11" data-source-line="38" data-uid="lnk18" id="link_Administrativo_UC11"><path d="M65.62,316.53 C78.9,287.91 101.14,249.8 132.52,228 C156.57,211.29 181.1705,203.2184 209.1705,198.2984" fill="none" id="Administrativo-to-UC11" style="stroke:#181818;stroke-width:1;"/><polygon fill="#181818" points="215.08,197.26,205.5236,194.8779,210.1554,198.1253,206.9081,202.7572,215.08,197.26" style="stroke:#181818;stroke-width:1;"/></g><!--link Administrativo to UC12--><g class="link" data-entity-1="Administrativo" data-entity-2="UC12" data-source-line="39" data-uid="lnk19" id="link_Administrativo_UC12"><path d="M56.55,316.54 C65.33,272.21 86.18,199.01 132.52,156 C158.02,132.32 188.4608,120.5469 220.1808,113.2969" fill="none" id="Administrativo-to-UC12" style="stroke:#181818;stroke-width:1;"/><polygon fill="#181818" points="226.03,111.96,216.365,110.0659,221.1557,113.0741,218.1475,117.8648,226.03,111.96" style="stroke:#181818;stroke-width:1;"/></g><!--link Administrativo to UC13--><g class="link" data-entity-1="Administrativo" data-entity-2="UC13" data-source-line="40" data-uid="lnk20" id="link_Administrativo_UC13"><path d="M93.95,339.08 C133.12,325.55 185.5487,307.4387 229.0387,292.4187" fill="none" id="Administrativo-to-UC13" style="stroke:#181818;stroke-width:1;"/><polygon fill="#181818" points="234.71,290.46,224.8973,289.6172,229.9839,292.0922,227.5088,297.1789,234.71,290.46" style="stroke:#181818;stroke-width:1;"/></g><!--SRC=[ZLBBJkD04BpxArhUmvv0CH7P2A58sMoCk18jzzPCOrhOCsXc7F4G7yIPJ-37w9aaO1E3c9DLNLNTNUsQhW842uwhwm2Q7Qd0rcJ-XiqjEcpW5jKDLhGAzpL1BAEfQkeGMayAFS5Z1l1No9MphT4BMri7lvRByhWiOyKwJMwBZiQJoR-9eAKrOSKF1CLHzjJnH1M4D-XOflT3nsnZDDSD6_R1OU2rpRBtDI1V2KmDmhcHgg40IzsgICCyzUzGpyW7VdqnC5UeNvyRLbiEl6UGpprN1fq0BJgs7X0Q3EGOVGwxXnx-B_w8yAdVO66RreYhaWkGt_E-90TgIz6suzTvoNhQrotDch4d1JQoIcXZ8wnZgwGhHlipVKIdqkvdPCXXlJVSmj77skAlUSswZSHFmnN5Dq8lQNavKJwmbHoq9qpdi35iJuryEvAqTvVPnRDHZjDUyZlyXWkgj_a2tGKoEelES3XBey49d9vkyDaiLaQRoXJwbQp_Hy71mIoTT12U3iEIzZ1UV84VVO6Ftm00]--></g></svg>