<svg xmlns="http://www.w3.org/2000/svg" xmlns:xlink="http://www.w3.org/1999/xlink" contentStyleType="text/css" data-diagram-type="CLASS" height="950px" preserveAspectRatio="none" style="width:914px;height:950px;background:#1B1B1B;" version="1.1" viewBox="0 0 914 950" width="914px" zoomAndPan="magnify"><defs/><g><rect fill="#1B1B1B" height="950" style="stroke:none;stroke-width:1;" width="914" x="0" y="0"/><!--class Usuario--><g class="entity" data-entity="Usuario" data-source-line="8" data-uid="ent0002" id="entity_Usuario"><rect fill="#313139" height="113.1875" rx="2.5" ry="2.5" style="stroke:#E7E7E7;stroke-width:0.5;" width="351.2539" x="107.17" y="7"/><ellipse cx="251.9449" cy="23" fill="#2E5233" rx="11" ry="11" style="stroke:#E7E7E7;stroke-width:1;"/><path d="M256.0543,29 L248.3355,29 L248.3355,16.6094 L256.0543,16.6094 L256.0543,18.7656 L250.7887,18.7656 L250.7887,21.4375 L255.5543,21.4375 L255.5543,23.5938 L250.7887,23.5938 L250.7887,26.8438 L256.0543,26.8438 L256.0543,29 Z " fill="#FFFFFF"/><text fill="#FFFFFF" font-family="sans-serif" font-size="14" lengthAdjust="spacing" textLength="53.2041" x="272.4449" y="27.8467">Usuario</text><line style="stroke:#E7E7E7;stroke-width:0.5;" x1="108.17" x2="457.4239" y1="39" y2="39"/><ellipse cx="118.17" cy="52.6484" fill="#000000" rx="3" ry="3" style="stroke:#000000;stroke-width:1;"/><text fill="#FFFFFF" font-family="sans-serif" font-size="14" lengthAdjust="spacing" textLength="114.5635" x="127.17" y="55.9951">id : SERIAL &#171;PK&#187;</text><line style="stroke:#E7E7E7;stroke-width:0.5;" x1="108.17" x2="457.4239" y1="63.2969" y2="63.2969"/><ellipse cx="118.17" cy="76.9453" fill="#000000" rx="3" ry="3" style="stroke:#000000;stroke-width:1;"/><text fill="#FFFFFF" font-family="sans-serif" font-size="14" lengthAdjust="spacing" textLength="207.5527" x="127.17" y="80.292">correo : VARCHAR(100) &#171;UQ&#187;</text><ellipse cx="118.17" cy="93.2422" fill="#000000" rx="3" ry="3" style="stroke:#000000;stroke-width:1;"/><text fill="#FFFFFF" font-family="sans-serif" font-size="14" lengthAdjust="spacing" textLength="186.4639" x="127.17" y="96.5889">password : VARCHAR(255)</text><ellipse cx="118.17" cy="109.5391" fill="#000000" rx="3" ry="3" style="stroke:#000000;stroke-width:1;"/><text fill="#FFFFFF" font-family="sans-serif" font-size="14" lengthAdjust="spacing" textLength="325.2539" x="127.17" y="112.8857">rol : ENUM('alumno','profesor','administrador')</text></g><!--class Alumno--><g class="entity" data-entity="Alumno" data-source-line="15" data-uid="ent0003" id="entity_Alumno"><rect fill="#313139" height="162.0781" rx="2.5" ry="2.5" style="stroke:#E7E7E7;stroke-width:0.5;" width="211.5889" x="7" y="402.26"/><ellipse cx="81.8364" cy="418.26" fill="#2E5233" rx="11" ry="11" style="stroke:#E7E7E7;stroke-width:1;"/><path d="M85.9458,424.26 L78.2271,424.26 L78.2271,411.8694 L85.9458,411.8694 L85.9458,414.0256 L80.6802,414.0256 L80.6802,416.6975 L85.4458,416.6975 L85.4458,418.8538 L80.6802,418.8538 L80.6802,422.1038 L85.9458,422.1038 L85.9458,424.26 Z " fill="#FFFFFF"/><text fill="#FFFFFF" font-family="sans-serif" font-size="14" lengthAdjust="spacing" textLength="53.416" x="102.3364" y="423.1067">Alumno</text><line style="stroke:#E7E7E7;stroke-width:0.5;" x1="8" x2="217.5889" y1="434.26" y2="434.26"/><ellipse cx="18" cy="447.9084" fill="#000000" rx="3" ry="3" style="stroke:#000000;stroke-width:1;"/><text fill="#FFFFFF" font-family="sans-serif" font-size="14" lengthAdjust="spacing" textLength="114.5635" x="27" y="451.2551">id : SERIAL &#171;PK&#187;</text><ellipse cx="18" cy="464.2053" fill="#000000" rx="3" ry="3" style="stroke:#000000;stroke-width:1;"/><text fill="#FFFFFF" font-family="sans-serif" font-size="14" lengthAdjust="spacing" textLength="185.5889" x="27" y="467.552">usuario_id : INT &#171;FK&#187;&#171;UQ&#187;</text><ellipse cx="18" cy="480.5022" fill="#000000" rx="3" ry="3" style="stroke:#000000;stroke-width:1;"/><text fill="#FFFFFF" font-family="sans-serif" font-size="14" lengthAdjust="spacing" textLength="175.1709" x="27" y="483.8489">fecha_nacimiento : DATE</text><line style="stroke:#E7E7E7;stroke-width:0.5;" x1="8" x2="217.5889" y1="491.1506" y2="491.1506"/><ellipse cx="18" cy="504.7991" fill="#000000" rx="3" ry="3" style="stroke:#000000;stroke-width:1;"/><text fill="#FFFFFF" font-family="sans-serif" font-size="14" lengthAdjust="spacing" textLength="174.084" x="27" y="508.1457">nombre : VARCHAR(100)</text><ellipse cx="18" cy="521.0959" fill="#000000" rx="3" ry="3" style="stroke:#000000;stroke-width:1;"/><text fill="#FFFFFF" font-family="sans-serif" font-size="14" lengthAdjust="spacing" textLength="174.9521" x="27" y="524.4426">apellido : VARCHAR(100)</text><ellipse cx="18" cy="537.3928" fill="#000000" rx="3" ry="3" style="stroke:#000000;stroke-width:1;"/><text fill="#FFFFFF" font-family="sans-serif" font-size="14" lengthAdjust="spacing" textLength="175.3418" x="27" y="540.7395">dni : VARCHAR(20) &#171;UQ&#187;</text><ellipse cx="18" cy="553.6897" fill="#000000" rx="3" ry="3" style="stroke:#000000;stroke-width:1;"/><text fill="#FFFFFF" font-family="sans-serif" font-size="14" lengthAdjust="spacing" textLength="170.4883" x="27" y="557.0364">carrera : VARCHAR(100)</text></g><!--class Profesor--><g class="entity" data-entity="Profesor" data-source-line="25" data-uid="ent0004" id="entity_Profesor"><rect fill="#313139" height="162.0781" rx="2.5" ry="2.5" style="stroke:#E7E7E7;stroke-width:0.5;" width="233.457" x="166.07" y="180.18"/><ellipse cx="249.5881" cy="196.18" fill="#2E5233" rx="11" ry="11" style="stroke:#E7E7E7;stroke-width:1;"/><path d="M253.6974,202.18 L245.9787,202.18 L245.9787,189.7894 L253.6974,189.7894 L253.6974,191.9456 L248.4318,191.9456 L248.4318,194.6175 L253.1974,194.6175 L253.1974,196.7737 L248.4318,196.7737 L248.4318,200.0237 L253.6974,200.0237 L253.6974,202.18 Z " fill="#FFFFFF"/><text fill="#FFFFFF" font-family="sans-serif" font-size="14" lengthAdjust="spacing" textLength="57.9209" x="270.0881" y="201.0267">Profesor</text><line style="stroke:#E7E7E7;stroke-width:0.5;" x1="167.07" x2="398.527" y1="212.18" y2="212.18"/><ellipse cx="177.07" cy="225.8284" fill="#000000" rx="3" ry="3" style="stroke:#000000;stroke-width:1;"/><text fill="#FFFFFF" font-family="sans-serif" font-size="14" lengthAdjust="spacing" textLength="114.5635" x="186.07" y="229.1751">id : SERIAL &#171;PK&#187;</text><ellipse cx="177.07" cy="242.1253" fill="#000000" rx="3" ry="3" style="stroke:#000000;stroke-width:1;"/><text fill="#FFFFFF" font-family="sans-serif" font-size="14" lengthAdjust="spacing" textLength="185.5889" x="186.07" y="245.472">usuario_id : INT &#171;FK&#187;&#171;UQ&#187;</text><line style="stroke:#E7E7E7;stroke-width:0.5;" x1="167.07" x2="398.527" y1="252.7737" y2="252.7737"/><ellipse cx="177.07" cy="266.4222" fill="#000000" rx="3" ry="3" style="stroke:#000000;stroke-width:1;"/><text fill="#FFFFFF" font-family="sans-serif" font-size="14" lengthAdjust="spacing" textLength="174.084" x="186.07" y="269.7689">nombre : VARCHAR(100)</text><ellipse cx="177.07" cy="282.7191" fill="#000000" rx="3" ry="3" style="stroke:#000000;stroke-width:1;"/><text fill="#FFFFFF" font-family="sans-serif" font-size="14" lengthAdjust="spacing" textLength="174.9521" x="186.07" y="286.0657">apellido : VARCHAR(100)</text><ellipse cx="177.07" cy="299.0159" fill="#000000" rx="3" ry="3" style="stroke:#000000;stroke-width:1;"/><text fill="#FFFFFF" font-family="sans-serif" font-size="14" lengthAdjust="spacing" textLength="175.3418" x="186.07" y="302.3626">dni : VARCHAR(20) &#171;UQ&#187;</text><ellipse cx="177.07" cy="315.3128" fill="#000000" rx="3" ry="3" style="stroke:#000000;stroke-width:1;"/><text fill="#FFFFFF" font-family="sans-serif" font-size="14" lengthAdjust="spacing" textLength="155.9482" x="186.07" y="318.6595">titulo : VARCHAR(100)</text><ellipse cx="177.07" cy="331.6097" fill="#000000" rx="3" ry="3" style="stroke:#000000;stroke-width:1;"/><text fill="#FFFFFF" font-family="sans-serif" font-size="14" lengthAdjust="spacing" textLength="207.457" x="186.07" y="334.9564">especialidad : VARCHAR(100)</text></g><!--class Administrador--><g class="entity" data-entity="Administrador" data-source-line="35" data-uid="ent0005" id="entity_Administrador"><rect fill="#313139" height="113.1875" rx="2.5" ry="2.5" style="stroke:#E7E7E7;stroke-width:0.5;" width="211.5889" x="435" y="204.63"/><ellipse cx="487.0044" cy="220.63" fill="#2E5233" rx="11" ry="11" style="stroke:#E7E7E7;stroke-width:1;"/><path d="M491.1138,226.63 L483.395,226.63 L483.395,214.2394 L491.1138,214.2394 L491.1138,216.3956 L485.8481,216.3956 L485.8481,219.0675 L490.6138,219.0675 L490.6138,221.2238 L485.8481,221.2238 L485.8481,224.4738 L491.1138,224.4738 L491.1138,226.63 Z " fill="#FFFFFF"/><text fill="#FFFFFF" font-family="sans-serif" font-size="14" lengthAdjust="spacing" textLength="99.0801" x="507.5044" y="225.4767">Administrador</text><line style="stroke:#E7E7E7;stroke-width:0.5;" x1="436" x2="645.5889" y1="236.63" y2="236.63"/><ellipse cx="446" cy="250.2784" fill="#000000" rx="3" ry="3" style="stroke:#000000;stroke-width:1;"/><text fill="#FFFFFF" font-family="sans-serif" font-size="14" lengthAdjust="spacing" textLength="114.5635" x="455" y="253.6251">id : SERIAL &#171;PK&#187;</text><ellipse cx="446" cy="266.5753" fill="#000000" rx="3" ry="3" style="stroke:#000000;stroke-width:1;"/><text fill="#FFFFFF" font-family="sans-serif" font-size="14" lengthAdjust="spacing" textLength="185.5889" x="455" y="269.922">usuario_id : INT &#171;FK&#187;&#171;UQ&#187;</text><line style="stroke:#E7E7E7;stroke-width:0.5;" x1="436" x2="645.5889" y1="277.2238" y2="277.2238"/><ellipse cx="446" cy="290.8722" fill="#000000" rx="3" ry="3" style="stroke:#000000;stroke-width:1;"/><text fill="#FFFFFF" font-family="sans-serif" font-size="14" lengthAdjust="spacing" textLength="174.084" x="455" y="294.2189">nombre : VARCHAR(100)</text><ellipse cx="446" cy="307.1691" fill="#000000" rx="3" ry="3" style="stroke:#000000;stroke-width:1;"/><text fill="#FFFFFF" font-family="sans-serif" font-size="14" lengthAdjust="spacing" textLength="174.9521" x="455" y="310.5157">apellido : VARCHAR(100)</text></g><!--class Materia--><g class="entity" data-entity="Materia" data-source-line="42" data-uid="ent0006" id="entity_Materia"><rect fill="#313139" height="113.1875" rx="2.5" ry="2.5" style="stroke:#E7E7E7;stroke-width:0.5;" width="226.1836" x="681.7" y="204.63"/><ellipse cx="764.0491" cy="220.63" fill="#2E5233" rx="11" ry="11" style="stroke:#E7E7E7;stroke-width:1;"/><path d="M768.1585,226.63 L760.4397,226.63 L760.4397,214.2394 L768.1585,214.2394 L768.1585,216.3956 L762.8929,216.3956 L762.8929,219.0675 L767.6585,219.0675 L767.6585,221.2238 L762.8929,221.2238 L762.8929,224.4738 L768.1585,224.4738 L768.1585,226.63 Z " fill="#FFFFFF"/><text fill="#FFFFFF" font-family="sans-serif" font-size="14" lengthAdjust="spacing" textLength="52.9854" x="784.5491" y="225.4767">Materia</text><line style="stroke:#E7E7E7;stroke-width:0.5;" x1="682.7" x2="906.8836" y1="236.63" y2="236.63"/><ellipse cx="692.7" cy="250.2784" fill="#000000" rx="3" ry="3" style="stroke:#000000;stroke-width:1;"/><text fill="#FFFFFF" font-family="sans-serif" font-size="14" lengthAdjust="spacing" textLength="114.5635" x="701.7" y="253.6251">id : SERIAL &#171;PK&#187;</text><ellipse cx="692.7" cy="266.5753" fill="#000000" rx="3" ry="3" style="stroke:#000000;stroke-width:1;"/><text fill="#FFFFFF" font-family="sans-serif" font-size="14" lengthAdjust="spacing" textLength="129.2061" x="701.7" y="269.922">descripcion : TEXT</text><line style="stroke:#E7E7E7;stroke-width:0.5;" x1="682.7" x2="906.8836" y1="277.2238" y2="277.2238"/><ellipse cx="692.7" cy="290.8722" fill="#000000" rx="3" ry="3" style="stroke:#000000;stroke-width:1;"/><text fill="#FFFFFF" font-family="sans-serif" font-size="14" lengthAdjust="spacing" textLength="174.084" x="701.7" y="294.2189">nombre : VARCHAR(100)</text><ellipse cx="692.7" cy="307.1691" fill="#000000" rx="3" ry="3" style="stroke:#000000;stroke-width:1;"/><text fill="#FFFFFF" font-family="sans-serif" font-size="14" lengthAdjust="spacing" textLength="200.1836" x="701.7" y="310.5157">codigo : VARCHAR(20) &#171;UQ&#187;</text></g><!--class Curso--><g class="entity" data-entity="Curso" data-source-line="49" data-uid="ent0007" id="entity_Curso"><rect fill="#313139" height="145.7813" rx="2.5" ry="2.5" style="stroke:#E7E7E7;stroke-width:0.5;" width="179.7266" x="253.93" y="410.41"/><ellipse cx="319.4114" cy="426.41" fill="#2E5233" rx="11" ry="11" style="stroke:#E7E7E7;stroke-width:1;"/><path d="M323.5208,432.41 L315.8021,432.41 L315.8021,420.0194 L323.5208,420.0194 L323.5208,422.1756 L318.2552,422.1756 L318.2552,424.8475 L323.0208,424.8475 L323.0208,427.0037 L318.2552,427.0037 L318.2552,430.2537 L323.5208,430.2537 L323.5208,432.41 Z " fill="#FFFFFF"/><text fill="#FFFFFF" font-family="sans-serif" font-size="14" lengthAdjust="spacing" textLength="40.2637" x="339.9114" y="431.2567">Curso</text><line style="stroke:#E7E7E7;stroke-width:0.5;" x1="254.93" x2="432.6566" y1="442.41" y2="442.41"/><ellipse cx="264.93" cy="456.0584" fill="#000000" rx="3" ry="3" style="stroke:#000000;stroke-width:1;"/><text fill="#FFFFFF" font-family="sans-serif" font-size="14" lengthAdjust="spacing" textLength="114.5635" x="273.93" y="459.4051">id : SERIAL &#171;PK&#187;</text><ellipse cx="264.93" cy="472.3553" fill="#000000" rx="3" ry="3" style="stroke:#000000;stroke-width:1;"/><text fill="#FFFFFF" font-family="sans-serif" font-size="14" lengthAdjust="spacing" textLength="149.9053" x="273.93" y="475.702">materia_id : INT &#171;FK&#187;</text><ellipse cx="264.93" cy="488.6522" fill="#000000" rx="3" ry="3" style="stroke:#000000;stroke-width:1;"/><text fill="#FFFFFF" font-family="sans-serif" font-size="14" lengthAdjust="spacing" textLength="153.7266" x="273.93" y="491.9989">profesor_id : INT &#171;FK&#187;</text><ellipse cx="264.93" cy="504.9491" fill="#000000" rx="3" ry="3" style="stroke:#000000;stroke-width:1;"/><text fill="#FFFFFF" font-family="sans-serif" font-size="14" lengthAdjust="spacing" textLength="149.8232" x="273.93" y="508.2957">anio_academico : INT</text><ellipse cx="264.93" cy="521.2459" fill="#000000" rx="3" ry="3" style="stroke:#000000;stroke-width:1;"/><text fill="#FFFFFF" font-family="sans-serif" font-size="14" lengthAdjust="spacing" textLength="126.458" x="273.93" y="524.5926">cuatrimestre : INT</text><ellipse cx="264.93" cy="537.5428" fill="#000000" rx="3" ry="3" style="stroke:#000000;stroke-width:1;"/><text fill="#FFFFFF" font-family="sans-serif" font-size="14" lengthAdjust="spacing" textLength="70.793" x="273.93" y="540.8895">cupo : INT</text><line style="stroke:#E7E7E7;stroke-width:0.5;" x1="254.93" x2="432.6566" y1="548.1913" y2="548.1913"/></g><!--class Aula--><g class="entity" data-entity="Aula" data-source-line="58" data-uid="ent0008" id="entity_Aula"><rect fill="#313139" height="113.1875" rx="2.5" ry="2.5" style="stroke:#E7E7E7;stroke-width:0.5;" width="212.7031" x="468.44" y="426.71"/><ellipse cx="555.0821" cy="442.71" fill="#2E5233" rx="11" ry="11" style="stroke:#E7E7E7;stroke-width:1;"/><path d="M559.1915,448.71 L551.4727,448.71 L551.4727,436.3194 L559.1915,436.3194 L559.1915,438.4756 L553.9258,438.4756 L553.9258,441.1475 L558.6915,441.1475 L558.6915,443.3037 L553.9258,443.3037 L553.9258,446.5537 L559.1915,446.5537 L559.1915,448.71 Z " fill="#FFFFFF"/><text fill="#FFFFFF" font-family="sans-serif" font-size="14" lengthAdjust="spacing" textLength="30.9189" x="575.5821" y="447.5567">Aula</text><line style="stroke:#E7E7E7;stroke-width:0.5;" x1="469.44" x2="680.1431" y1="458.71" y2="458.71"/><ellipse cx="479.44" cy="472.3584" fill="#000000" rx="3" ry="3" style="stroke:#000000;stroke-width:1;"/><text fill="#FFFFFF" font-family="sans-serif" font-size="14" lengthAdjust="spacing" textLength="114.5635" x="488.44" y="475.7051">id : SERIAL &#171;PK&#187;</text><ellipse cx="479.44" cy="488.6553" fill="#000000" rx="3" ry="3" style="stroke:#000000;stroke-width:1;"/><text fill="#FFFFFF" font-family="sans-serif" font-size="14" lengthAdjust="spacing" textLength="108.4521" x="488.44" y="492.002">capacidad : INT</text><line style="stroke:#E7E7E7;stroke-width:0.5;" x1="469.44" x2="680.1431" y1="499.3037" y2="499.3037"/><ellipse cx="479.44" cy="512.9522" fill="#000000" rx="3" ry="3" style="stroke:#000000;stroke-width:1;"/><text fill="#FFFFFF" font-family="sans-serif" font-size="14" lengthAdjust="spacing" textLength="165.1768" x="488.44" y="516.2989">nombre : VARCHAR(50)</text><ellipse cx="479.44" cy="529.2491" fill="#000000" rx="3" ry="3" style="stroke:#000000;stroke-width:1;"/><text fill="#FFFFFF" font-family="sans-serif" font-size="14" lengthAdjust="spacing" textLength="186.7031" x="488.44" y="532.5957">ubicacion : VARCHAR(100)</text></g><!--class Horario--><g class="entity" data-entity="Horario" data-source-line="65" data-uid="ent0009" id="entity_Horario"><rect fill="#313139" height="145.7813" rx="2.5" ry="2.5" style="stroke:#E7E7E7;stroke-width:0.5;" width="488.4443" x="313.57" y="624.34"/><ellipse cx="527.7228" cy="640.34" fill="#2E5233" rx="11" ry="11" style="stroke:#E7E7E7;stroke-width:1;"/><path d="M531.8322,646.34 L524.1135,646.34 L524.1135,633.9494 L531.8322,633.9494 L531.8322,636.1056 L526.5666,636.1056 L526.5666,638.7775 L531.3322,638.7775 L531.3322,640.9337 L526.5666,640.9337 L526.5666,644.1837 L531.8322,644.1837 L531.8322,646.34 Z " fill="#FFFFFF"/><text fill="#FFFFFF" font-family="sans-serif" font-size="14" lengthAdjust="spacing" textLength="51.6387" x="548.2228" y="645.1867">Horario</text><line style="stroke:#E7E7E7;stroke-width:0.5;" x1="314.57" x2="801.0143" y1="656.34" y2="656.34"/><ellipse cx="324.57" cy="669.9884" fill="#000000" rx="3" ry="3" style="stroke:#000000;stroke-width:1;"/><text fill="#FFFFFF" font-family="sans-serif" font-size="14" lengthAdjust="spacing" textLength="114.5635" x="333.57" y="673.3351">id : SERIAL &#171;PK&#187;</text><ellipse cx="324.57" cy="686.2853" fill="#000000" rx="3" ry="3" style="stroke:#000000;stroke-width:1;"/><text fill="#FFFFFF" font-family="sans-serif" font-size="14" lengthAdjust="spacing" textLength="133.5469" x="333.57" y="689.632">curso_id : INT &#171;FK&#187;</text><ellipse cx="324.57" cy="702.5822" fill="#000000" rx="3" ry="3" style="stroke:#000000;stroke-width:1;"/><text fill="#FFFFFF" font-family="sans-serif" font-size="14" lengthAdjust="spacing" textLength="125.2822" x="333.57" y="705.9289">aula_id : INT &#171;FK&#187;</text><ellipse cx="324.57" cy="718.8791" fill="#000000" rx="3" ry="3" style="stroke:#000000;stroke-width:1;"/><text fill="#FFFFFF" font-family="sans-serif" font-size="14" lengthAdjust="spacing" textLength="122.8008" x="333.57" y="722.2257">hora_inicio : TIME</text><ellipse cx="324.57" cy="735.1759" fill="#000000" rx="3" ry="3" style="stroke:#000000;stroke-width:1;"/><text fill="#FFFFFF" font-family="sans-serif" font-size="14" lengthAdjust="spacing" textLength="103.6875" x="333.57" y="738.5226">hora_fin : TIME</text><line style="stroke:#E7E7E7;stroke-width:0.5;" x1="314.57" x2="801.0143" y1="745.8244" y2="745.8244"/><ellipse cx="324.57" cy="759.4728" fill="#000000" rx="3" ry="3" style="stroke:#000000;stroke-width:1;"/><text fill="#FFFFFF" font-family="sans-serif" font-size="14" lengthAdjust="spacing" textLength="462.4443" x="333.57" y="762.8195">dia : ENUM('Lunes','Martes','Mi&#233;rcoles','Jueves','Viernes','S&#225;bado')</text></g><!--class Inscripcion--><g class="entity" data-entity="Inscripcion" data-source-line="74" data-uid="ent0010" id="entity_Inscripcion"><rect fill="#313139" height="129.4844" rx="2.5" ry="2.5" style="stroke:#E7E7E7;stroke-width:0.5;" width="230.9414" x="30.32" y="632.49"/><ellipse cx="103.7653" cy="648.49" fill="#2E5233" rx="11" ry="11" style="stroke:#E7E7E7;stroke-width:1;"/><path d="M107.8747,654.49 L100.1559,654.49 L100.1559,642.0994 L107.8747,642.0994 L107.8747,644.2556 L102.6091,644.2556 L102.6091,646.9275 L107.3747,646.9275 L107.3747,649.0838 L102.6091,649.0838 L102.6091,652.3338 L107.8747,652.3338 L107.8747,654.49 Z " fill="#FFFFFF"/><text fill="#FFFFFF" font-family="sans-serif" font-size="14" lengthAdjust="spacing" textLength="75.5508" x="124.2653" y="653.3367">Inscripcion</text><line style="stroke:#E7E7E7;stroke-width:0.5;" x1="31.32" x2="260.2614" y1="664.49" y2="664.49"/><ellipse cx="41.32" cy="678.1384" fill="#000000" rx="3" ry="3" style="stroke:#000000;stroke-width:1;"/><text fill="#FFFFFF" font-family="sans-serif" font-size="14" lengthAdjust="spacing" textLength="114.5635" x="50.32" y="681.4851">id : SERIAL &#171;PK&#187;</text><ellipse cx="41.32" cy="694.4353" fill="#000000" rx="3" ry="3" style="stroke:#000000;stroke-width:1;"/><text fill="#FFFFFF" font-family="sans-serif" font-size="14" lengthAdjust="spacing" textLength="147.7793" x="50.32" y="697.782">alumno_id : INT &#171;FK&#187;</text><ellipse cx="41.32" cy="710.7322" fill="#000000" rx="3" ry="3" style="stroke:#000000;stroke-width:1;"/><text fill="#FFFFFF" font-family="sans-serif" font-size="14" lengthAdjust="spacing" textLength="133.5469" x="50.32" y="714.0789">curso_id : INT &#171;FK&#187;</text><ellipse cx="41.32" cy="727.0291" fill="#000000" rx="3" ry="3" style="stroke:#000000;stroke-width:1;"/><text fill="#FFFFFF" font-family="sans-serif" font-size="14" lengthAdjust="spacing" textLength="172.375" x="50.32" y="730.3757">fecha_inscripcion : DATE</text><line style="stroke:#E7E7E7;stroke-width:0.5;" x1="31.32" x2="260.2614" y1="737.6775" y2="737.6775"/><ellipse cx="41.32" cy="751.3259" fill="#000000" rx="3" ry="3" style="stroke:#000000;stroke-width:1;"/><text fill="#FFFFFF" font-family="sans-serif" font-size="14" lengthAdjust="spacing" textLength="204.9414" x="50.32" y="754.6726">UNIQUE(alumno_id, curso_id)</text></g><!--class Calificacion--><g class="entity" data-entity="Calificacion" data-source-line="82" data-uid="ent0011" id="entity_Calificacion"><rect fill="#313139" height="113.1875" rx="2.5" ry="2.5" style="stroke:#E7E7E7;stroke-width:0.5;" width="196.6729" x="47.46" y="830.12"/><ellipse cx="101.4195" cy="846.12" fill="#2E5233" rx="11" ry="11" style="stroke:#E7E7E7;stroke-width:1;"/><path d="M105.5288,852.12 L97.8101,852.12 L97.8101,839.7294 L105.5288,839.7294 L105.5288,841.8856 L100.2632,841.8856 L100.2632,844.5575 L105.0288,844.5575 L105.0288,846.7137 L100.2632,846.7137 L100.2632,849.9637 L105.5288,849.9637 L105.5288,852.12 Z " fill="#FFFFFF"/><text fill="#FFFFFF" font-family="sans-serif" font-size="14" lengthAdjust="spacing" textLength="80.2539" x="121.9195" y="850.9667">Calificacion</text><line style="stroke:#E7E7E7;stroke-width:0.5;" x1="48.46" x2="243.1329" y1="862.12" y2="862.12"/><ellipse cx="58.46" cy="875.7684" fill="#000000" rx="3" ry="3" style="stroke:#000000;stroke-width:1;"/><text fill="#FFFFFF" font-family="sans-serif" font-size="14" lengthAdjust="spacing" textLength="114.5635" x="67.46" y="879.1151">id : SERIAL &#171;PK&#187;</text><ellipse cx="58.46" cy="892.0653" fill="#000000" rx="3" ry="3" style="stroke:#000000;stroke-width:1;"/><text fill="#FFFFFF" font-family="sans-serif" font-size="14" lengthAdjust="spacing" textLength="170.6729" x="67.46" y="895.412">inscripcion_id : INT &#171;FK&#187;</text><ellipse cx="58.46" cy="908.3622" fill="#000000" rx="3" ry="3" style="stroke:#000000;stroke-width:1;"/><text fill="#FFFFFF" font-family="sans-serif" font-size="14" lengthAdjust="spacing" textLength="90.0635" x="67.46" y="911.7089">fecha : DATE</text><line style="stroke:#E7E7E7;stroke-width:0.5;" x1="48.46" x2="243.1329" y1="919.0106" y2="919.0106"/><ellipse cx="58.46" cy="932.6591" fill="#000000" rx="3" ry="3" style="stroke:#000000;stroke-width:1;"/><text fill="#FFFFFF" font-family="sans-serif" font-size="14" lengthAdjust="spacing" textLength="143.5889" x="67.46" y="936.0057">nota : NUMERIC(4,2)</text></g><!--link Usuario to Alumno--><g class="link" data-entity-1="Usuario" data-entity-2="Alumno" data-source-line="90" data-uid="lnk12" id="link_Usuario_Alumno"><path codeLine="90" d="M192.6392,125.7164 C173.2492,142.6164 160.84,157.53 148.79,180.18 C112.33,248.74 105.7407,330.1812 106.8507,393.9212" fill="none" id="Usuario-Alumno" style="stroke:#E7E7E7;stroke-width:1;"/><line style="stroke:#E7E7E7;stroke-width:1;" x1="193.0264" x2="198.2828" y1="120.0728" y2="126.1036"/><line style="stroke:#E7E7E7;stroke-width:1;" x1="190.7649" x2="196.0212" y1="122.0439" y2="128.0747"/><line style="stroke:#E7E7E7;stroke-width:1;" x1="192.6392" x2="198.67" y1="125.7164" y2="120.46"/><line style="stroke:#E7E7E7;stroke-width:1;" x1="110.9197" x2="102.921" y1="397.851" y2="397.9903"/><line style="stroke:#E7E7E7;stroke-width:1;" x1="110.8675" x2="102.8687" y1="394.8514" y2="394.9907"/><line style="stroke:#E7E7E7;stroke-width:1;" x1="106.8507" x2="106.99" y1="393.9212" y2="401.92"/></g><!--link Usuario to Profesor--><g class="link" data-entity-1="Usuario" data-entity-2="Profesor" data-source-line="91" data-uid="lnk13" id="link_Usuario_Profesor"><path codeLine="91" d="M282.79,128.65 C282.79,147.06 282.79,151.89 282.79,171.74" fill="none" id="Usuario-Profesor" style="stroke:#E7E7E7;stroke-width:1;"/><line style="stroke:#E7E7E7;stroke-width:1;" x1="278.79" x2="286.79" y1="124.65" y2="124.65"/><line style="stroke:#E7E7E7;stroke-width:1;" x1="278.79" x2="286.79" y1="127.65" y2="127.65"/><line style="stroke:#E7E7E7;stroke-width:1;" x1="282.79" x2="282.79" y1="128.65" y2="120.65"/><line style="stroke:#E7E7E7;stroke-width:1;" x1="286.79" x2="278.79" y1="175.74" y2="175.74"/><line style="stroke:#E7E7E7;stroke-width:1;" x1="286.79" x2="278.79" y1="172.74" y2="172.74"/><line style="stroke:#E7E7E7;stroke-width:1;" x1="282.79" x2="282.79" y1="171.74" y2="179.74"/></g><!--link Usuario to Administrador--><g class="link" data-entity-1="Usuario" data-entity-2="Administrador" data-source-line="92" data-uid="lnk14" id="link_Usuario_Administrador"><path codeLine="92" d="M363.1038,125.4848 C397.6438,151.6848 425.9256,173.1261 460.4756,199.3261" fill="none" id="Usuario-Administrador" style="stroke:#E7E7E7;stroke-width:1;"/><line style="stroke:#E7E7E7;stroke-width:1;" x1="357.4995" x2="362.3343" y1="126.2543" y2="119.8805"/><line style="stroke:#E7E7E7;stroke-width:1;" x1="359.8897" x2="364.7244" y1="128.0673" y2="121.6935"/><line style="stroke:#E7E7E7;stroke-width:1;" x1="363.1038" x2="356.73" y1="125.4848" y2="120.65"/><line style="stroke:#E7E7E7;stroke-width:1;" x1="466.0797" x2="461.2458" y1="198.5558" y2="204.9303"/><line style="stroke:#E7E7E7;stroke-width:1;" x1="463.6893" x2="458.8554" y1="196.7431" y2="203.1176"/><line style="stroke:#E7E7E7;stroke-width:1;" x1="460.4756" x2="466.85" y1="199.3261" y2="204.16"/></g><!--link Materia to Curso--><g class="link" data-entity-1="Materia" data-entity-2="Curso" data-source-line="93" data-uid="lnk15" id="link_Materia_Curso"><path codeLine="93" d="M703.7135,322.2429 C688.5035,331.0329 679.43,335.44 663.79,342.26 C573.65,381.6 538.99,358.74 450.79,402.26 C445.18,405.03 455.0583,398.9557 449.4883,402.2457" fill="none" id="Materia-Curso" style="stroke:#E7E7E7;stroke-width:1;"/><line style="stroke:#E7E7E7;stroke-width:1;" x1="705.1753" x2="709.1782" y1="316.7782" y2="323.7047"/><line style="stroke:#E7E7E7;stroke-width:1;" x1="702.5778" x2="706.5807" y1="318.2793" y2="325.2058"/><line style="stroke:#E7E7E7;stroke-width:1;" x1="703.7135" x2="710.64" y1="322.2429" y2="318.24"/><line style="stroke:#E7E7E7;stroke-width:1;" x1="440.8782" x2="437.0414" y1="407.3314" y2="416.5661"/><line style="stroke:#E7E7E7;stroke-width:1;" x1="440.8782" x2="430.9386" y1="407.3314" y2="406.2339"/><line style="stroke:#E7E7E7;stroke-width:1;" x1="440.8782" x2="433.99" y1="407.3314" y2="411.4"/><ellipse cx="446.0443" cy="404.28" fill="none" rx="4" ry="4" style="stroke:#E7E7E7;stroke-width:1;"/></g><!--link Profesor to Curso--><g class="link" data-entity-1="Profesor" data-entity-2="Curso" data-source-line="94" data-uid="lnk16" id="link_Profesor_Curso"><path codeLine="94" d="M307.215,350.3198 C313.335,372.4198 313.0019,371.194 318.9919,392.804" fill="none" id="Profesor-Curso" style="stroke:#E7E7E7;stroke-width:1;"/><line style="stroke:#E7E7E7;stroke-width:1;" x1="302.2926" x2="310.0024" y1="347.5324" y2="345.3974"/><line style="stroke:#E7E7E7;stroke-width:1;" x1="303.0932" x2="310.8031" y1="350.4236" y2="348.2886"/><line style="stroke:#E7E7E7;stroke-width:1;" x1="307.215" x2="305.08" y1="350.3198" y2="342.61"/><line style="stroke:#E7E7E7;stroke-width:1;" x1="321.6631" x2="329.582" y1="402.4407" y2="408.5473"/><line style="stroke:#E7E7E7;stroke-width:1;" x1="321.6631" x2="318.018" y1="402.4407" y2="411.7527"/><line style="stroke:#E7E7E7;stroke-width:1;" x1="321.6631" x2="323.8" y1="402.4407" y2="410.15"/><ellipse cx="320.0604" cy="396.6587" fill="none" rx="4" ry="4" style="stroke:#E7E7E7;stroke-width:1;"/></g><!--link Curso to Horario--><g class="link" data-entity-1="Curso" data-entity-2="Horario" data-source-line="95" data-uid="lnk17" id="link_Curso_Horario"><path codeLine="95" d="M422.524,562.2696 C444.444,583.9796 450.001,589.4835 471.921,611.1935" fill="none" id="Curso-Horario" style="stroke:#E7E7E7;stroke-width:1;"/><line style="stroke:#E7E7E7;stroke-width:1;" x1="416.8672" x2="422.4968" y1="562.2968" y2="556.6128"/><line style="stroke:#E7E7E7;stroke-width:1;" x1="418.9987" x2="424.6283" y1="564.4079" y2="558.7239"/><line style="stroke:#E7E7E7;stroke-width:1;" x1="422.524" x2="416.84" y1="562.2696" y2="556.64"/><line style="stroke:#E7E7E7;stroke-width:1;" x1="479.026" x2="488.9322" y1="618.2304" y2="619.597"/><line style="stroke:#E7E7E7;stroke-width:1;" x1="479.026" x2="480.4878" y1="618.2304" y2="628.123"/><line style="stroke:#E7E7E7;stroke-width:1;" x1="479.026" x2="484.71" y1="618.2304" y2="623.86"/><ellipse cx="474.763" cy="614.0083" fill="none" rx="4" ry="4" style="stroke:#E7E7E7;stroke-width:1;"/></g><!--link Aula to Horario--><g class="link" data-entity-1="Aula" data-entity-2="Horario" data-source-line="96" data-uid="lnk18" id="link_Aula_Horario"><path codeLine="96" d="M569.6691,548.2343 C567.6091,573.8643 567.2332,578.648 565.0332,605.998" fill="none" id="Aula-Horario" style="stroke:#E7E7E7;stroke-width:1;"/><line style="stroke:#E7E7E7;stroke-width:1;" x1="566.0024" x2="573.9767" y1="543.9267" y2="544.5676"/><line style="stroke:#E7E7E7;stroke-width:1;" x1="565.762" x2="573.7363" y1="546.917" y2="547.558"/><line style="stroke:#E7E7E7;stroke-width:1;" x1="569.6691" x2="570.31" y1="548.2343" y2="540.26"/><line style="stroke:#E7E7E7;stroke-width:1;" x1="564.2314" x2="569.5707" y1="615.9658" y2="624.4211"/><line style="stroke:#E7E7E7;stroke-width:1;" x1="564.2314" x2="557.6093" y1="615.9658" y2="623.4589"/><line style="stroke:#E7E7E7;stroke-width:1;" x1="564.2314" x2="563.59" y1="615.9658" y2="623.94"/><ellipse cx="564.7125" cy="609.9851" fill="none" rx="4" ry="4" style="stroke:#E7E7E7;stroke-width:1;"/></g><!--link Alumno to Inscripcion--><g class="link" data-entity-1="Alumno" data-entity-2="Inscripcion" data-source-line="97" data-uid="lnk19" id="link_Alumno_Inscripcion"><path codeLine="97" d="M126.5498,572.6349 C130.0098,594.8749 129.7202,593.0344 133.0202,614.2244" fill="none" id="Alumno-Inscripcion" style="stroke:#E7E7E7;stroke-width:1;"/><line style="stroke:#E7E7E7;stroke-width:1;" x1="121.9825" x2="129.8874" y1="569.2974" y2="568.0675"/><line style="stroke:#E7E7E7;stroke-width:1;" x1="122.4436" x2="130.3485" y1="572.2617" y2="571.0319"/><line style="stroke:#E7E7E7;stroke-width:1;" x1="126.5498" x2="125.32" y1="572.6349" y2="564.73"/><line style="stroke:#E7E7E7;stroke-width:1;" x1="134.559" x2="141.7185" y1="624.1053" y2="631.0867"/><line style="stroke:#E7E7E7;stroke-width:1;" x1="134.559" x2="129.8615" y1="624.1053" y2="632.9333"/><line style="stroke:#E7E7E7;stroke-width:1;" x1="134.559" x2="135.79" y1="624.1053" y2="632.01"/><ellipse cx="133.6357" cy="618.1767" fill="none" rx="4" ry="4" style="stroke:#E7E7E7;stroke-width:1;"/></g><!--link Curso to Inscripcion--><g class="link" data-entity-1="Curso" data-entity-2="Inscripcion" data-source-line="98" data-uid="lnk20" id="link_Curso_Inscripcion"><path codeLine="98" d="M270.7487,562.4859 C247.8887,586.9559 240.2994,595.0782 218.0694,618.8682" fill="none" id="Curso-Inscripcion" style="stroke:#E7E7E7;stroke-width:1;"/><line style="stroke:#E7E7E7;stroke-width:1;" x1="270.5564" x2="276.4023" y1="556.8323" y2="562.2936"/><line style="stroke:#E7E7E7;stroke-width:1;" x1="268.5084" x2="274.3543" y1="559.0245" y2="564.4858"/><line style="stroke:#E7E7E7;stroke-width:1;" x1="270.7487" x2="276.21" y1="562.4859" y2="556.64"/><line style="stroke:#E7E7E7;stroke-width:1;" x1="211.242" x2="210.1639" y1="626.1747" y2="636.1165"/><line style="stroke:#E7E7E7;stroke-width:1;" x1="211.242" x2="201.3961" y1="626.1747" y2="627.9235"/><line style="stroke:#E7E7E7;stroke-width:1;" x1="211.242" x2="205.78" y1="626.1747" y2="632.02"/><ellipse cx="215.3384" cy="621.7908" fill="none" rx="4" ry="4" style="stroke:#E7E7E7;stroke-width:1;"/></g><!--link Inscripcion to Calificacion--><g class="link" data-entity-1="Inscripcion" data-entity-2="Calificacion" data-source-line="99" data-uid="lnk21" id="link_Inscripcion_Calificacion"><path codeLine="99" d="M145.79,770.23 C145.79,792.19 145.79,790.58 145.79,811.84" fill="none" id="Inscripcion-Calificacion" style="stroke:#E7E7E7;stroke-width:1;"/><line style="stroke:#E7E7E7;stroke-width:1;" x1="141.79" x2="149.79" y1="766.23" y2="766.23"/><line style="stroke:#E7E7E7;stroke-width:1;" x1="141.79" x2="149.79" y1="769.23" y2="769.23"/><line style="stroke:#E7E7E7;stroke-width:1;" x1="145.79" x2="145.79" y1="770.23" y2="762.23"/><line style="stroke:#E7E7E7;stroke-width:1;" x1="145.79" x2="151.79" y1="821.84" y2="829.84"/><line style="stroke:#E7E7E7;stroke-width:1;" x1="145.79" x2="139.79" y1="821.84" y2="829.84"/><line style="stroke:#E7E7E7;stroke-width:1;" x1="145.79" x2="145.79" y1="821.84" y2="829.84"/><ellipse cx="145.79" cy="815.84" fill="none" rx="4" ry="4" style="stroke:#E7E7E7;stroke-width:1;"/></g><!--SRC=[pLNDRjim3BxxARJka7X8WJPOW64e2hYPYsPhWZO_nMu18ocjK5ioP7lhrknXTjnpzCL6IxQZ90wodJO426H-DFbz94M_Odmf92SPB2BUVl89bvd8lf4dBtqKCW4DSMLwzWYv0FfuhrKkMLz5IfFNb- -ANu4epRWkhTsWrxq8qNgfP3OHtpavxNe_FCzcEPgbEMYXZdmJymqHZBmdat0y2Ax9sTdDf_DpOwPAQwuGkWl6_QjWt3uzEV7HONPREYIGfbynh-FIxVLyWsaLeJaSpORj5aHvB5MhqqgqMl9KQJm2YuKKQQQ1uRFli0kCzo5okTKmD_1WD4Ni4Z67dLJnGlCj-WQ1X4UHOAe9OrAuSZO5BpbzWBa4AcA1NIa2V0YceQqMOBKqRCTSwxefnV-Nod32ygZnDPucd0h0gC3sYmlSTluBXMigGyYu5d28nFuKZATKYuGA9H6UXf-dvNLWuburbt2TlP_hzE3mnfRYTW7ifIh7f144YMK32ep7WYgBMt8vP5h473l0Dyn9vUNqAe_-lZgziZZvGb0eIxDJEGe9OdPGDdDUAVr7AwUeNhDo9Dq8C07rehdE9KznkGn1P_OWNdvfgYBpy37dNypXJd1j7ISlFnSuiIrB_m59pd6CKLxH-C4mN9jnIrUsjQg1h2Vba3Ax0niLx1TjzusGxZpM2sSs6jpEmdOTk5C7Scz37s_kicpP8OvEeaOwKcL5hR7K-6g__RRJzTSqAsgOkaN6F38PUUgL7nkoMXqVhrR4RlTjQxKRTxpTjUALDzk0wfcOg-PLhsvQpNzbAeVFAmP_nsRuL5QdePiXNC0vrqcTAly6]--></g></svg>